<svg width="24" height="24" viewBox="0 0 24 24" fill="none" xmlns="http://www.w3.org/2000/svg">
<g clip-path="url(#clip0_27_615)">
<rect width="24" height="24" rx="12" fill="white"/>
<mask id="path-3-inside-1_27_615" fill="white">
<path d="M16.6127 6.39512L17.3965 6.69593L12.9329 11.2676L12.1541 10.9794L16.6127 6.39512Z"/>
</mask>
<path d="M16.6127 6.39512L17.3965 6.69593L12.9329 11.2676L12.1541 10.9794L16.6127 6.39512Z" fill="white"/>
<path d="M16.6127 6.39512L16.9923 5.484L16.3462 5.23602L15.8698 5.72588L16.6127 6.39512ZM17.3965 6.69593L18.1381 7.36656L19.1627 6.31705L17.776 5.78481L17.3965 6.69593ZM12.9329 11.2676L12.565 12.1832L13.2044 12.4198L13.6745 11.9383L12.9329 11.2676ZM12.1541 10.9794L11.4112 10.3102L10.3771 11.3734L11.7863 11.895L12.1541 10.9794ZM16.2331 7.30624L17.0169 7.60706L17.776 5.78481L16.9923 5.484L16.2331 7.30624ZM16.6549 6.02531L12.1913 10.597L13.6745 11.9383L18.1381 7.36656L16.6549 6.02531ZM13.3008 10.3521L12.522 10.0639L11.7863 11.895L12.565 12.1832L13.3008 10.3521ZM12.8971 11.6487L17.3557 7.06436L15.8698 5.72588L11.4112 10.3102L12.8971 11.6487Z" fill="black" mask="url(#path-3-inside-1_27_615)"/>
<mask id="path-5-inside-2_27_615" fill="white">
<path d="M10.6897 12.514L11.4902 12.7975L6.66881 17.7385L5.87291 17.468L10.6897 12.514Z"/>
</mask>
<path d="M10.6897 12.514L11.4902 12.7975L6.66881 17.7385L5.87291 17.468L10.6897 12.514Z" fill="white"/>
<path d="M10.6897 12.514L11.0437 11.5935L10.4094 11.3689L9.94661 11.8449L10.6897 12.514ZM11.4902 12.7975L12.232 13.4679L13.2862 12.3876L11.8442 11.877L11.4902 12.7975ZM6.66881 17.7385L6.32727 18.6634L6.95433 18.8765L7.41061 18.4089L6.66881 17.7385ZM5.87291 17.468L5.12986 16.7988L4.06471 17.8943L5.53137 18.3928L5.87291 17.468ZM10.3356 13.4346L11.1362 13.718L11.8442 11.877L11.0437 11.5935L10.3356 13.4346ZM10.7484 12.1271L5.92701 17.0681L7.41061 18.4089L12.232 13.4679L10.7484 12.1271ZM7.01035 16.8136L6.21445 16.5431L5.53137 18.3928L6.32727 18.6634L7.01035 16.8136ZM6.61596 18.1371L11.4327 13.1832L9.94661 11.8449L5.12986 16.7988L6.61596 18.1371Z" fill="black" mask="url(#path-5-inside-2_27_615)"/>
<path d="M14.4943 16.8582L6.98155 7.15258L9.29124 7.16371L16.7988 16.8582L14.4943 16.8582Z" stroke="black"/>
</g>
<defs>
<clipPath id="clip0_27_615">
<rect width="24" height="24" rx="4" fill="white"/>
</clipPath>
</defs>
</svg>
